<svg xmlns="http://www.w3.org/2000/svg" viewBox="0 0 100 100" width="100" height="100">
  <defs>
    <linearGradient id="paaster-gradient" x1="0%" y1="0%" x2="100%" y2="100%">
      <stop offset="0%" style="stop-color:#6366f1;stop-opacity:1" />
      <stop offset="100%" style="stop-color:#8b5cf6;stop-opacity:1" />
    </linearGradient>
  </defs>
  <!-- Background circle -->
  <circle cx="50" cy="50" r="45" fill="url(#paaster-gradient)"/>
  <!-- Clipboard body -->
  <rect x="28" y="30" width="44" height="50" rx="4" ry="4" fill="white" opacity="0.95"/>
  <!-- Clipboard clip -->
  <rect x="38" y="24" width="24" height="12" rx="2" ry="2" fill="white" opacity="0.95"/>
  <rect x="42" y="20" width="16" height="8" rx="3" ry="3" fill="#6366f1"/>
  <!-- Code lines (representing paste content) -->
  <rect x="35" y="42" width="30" height="3" rx="1" fill="#6366f1" opacity="0.6"/>
  <rect x="35" y="50" width="22" height="3" rx="1" fill="#8b5cf6" opacity="0.6"/>
  <rect x="35" y="58" width="26" height="3" rx="1" fill="#6366f1" opacity="0.6"/>
  <rect x="35" y="66" width="18" height="3" rx="1" fill="#8b5cf6" opacity="0.6"/>
  <!-- Lock icon (representing encryption) -->
  <circle cx="72" cy="68" r="10" fill="#10b981"/>
  <rect x="68" y="66" width="8" height="8" rx="1" fill="white"/>
  <path d="M69 66 V63 A3 3 0 0 1 75 63 V66" fill="none" stroke="white" stroke-width="2" stroke-linecap="round"/>
</svg>
